<svg xmlns="http://www.w3.org/2000/svg" width="39.818" height="39.876" viewBox="0 0 39.818 39.876">
  <g id="Group_189" data-name="Group 189" transform="translate(-1229.274 -30.562)">
    <path id="Path_356" data-name="Path 356" d="M10.924,18.666H9.513c-2.492,0-4.916,1.97-4.513,4.513l5.924,27.747Z" transform="translate(1224.318 19.512)" fill="#fff" opacity="0.2"/>
    <g id="Path_357" data-name="Path 357" transform="translate(1223.242 20.896)" fill="rgba(255,255,255,0.1)">
      <path d="M41.337,9.666H16.513A4.513,4.513,0,0,0,12,14.179V49.542l3.279-3.453a1.354,1.354,0,0,1,1.989.027l2.116,2.351a1.354,1.354,0,0,0,1.975.04l2.382-2.444a1.354,1.354,0,0,1,1.976.04l2.128,2.364a1.354,1.354,0,0,0,1.976.04L32.2,46.063a1.354,1.354,0,0,1,1.976.04l2.128,2.364a1.354,1.354,0,0,0,1.976.04l2.4-2.457a1.354,1.354,0,0,1,1.963.025l3.206,3.467V14.179a4.513,4.513,0,0,0-4.513-4.513Z" stroke="none"/>
      <path d="M 16.51299667358398 10.66599655151367 C 14.575927734375 10.66599655151367 13 12.24190521240234 13 14.1789665222168 L 13 47.03712463378906 L 14.55406951904297 45.40085601806641 C 14.99642944335938 44.93506622314453 15.61854934692383 44.66789627075195 16.26097869873047 44.66786575317383 L 16.29304885864258 44.66808319091797 C 16.9474983215332 44.67699432373047 17.57383728027344 44.96124267578125 18.01116943359375 45.44762420654297 L 20.12657928466797 47.79827499389648 C 20.19179916381836 47.87069702148438 20.28508758544922 47.91336441040039 20.38219833374023 47.91532516479492 L 20.38967895507812 47.9153938293457 C 20.48444747924805 47.9153938293457 20.57677841186523 47.87648391723633 20.64247894287109 47.80918502807617 L 23.02481842041016 45.36507415771484 C 23.46514892578125 44.91355514526367 24.07938766479492 44.65459442138672 24.71129989624023 44.65459442138672 C 24.72655868530273 44.65459442138672 24.74178695678711 44.65475463867188 24.7574577331543 44.65506362915039 C 25.40583801269531 44.66810607910156 26.02644920349121 44.95210266113281 26.45994758605957 45.43400573730469 L 28.58844757080078 47.79861450195312 C 28.6536693572998 47.8711051940918 28.74699783325195 47.91381454467773 28.84416770935059 47.91577529907227 L 28.85166931152344 47.91584396362305 C 28.94647789001465 47.91584396362305 29.03882789611816 47.87690353393555 29.10486793518066 47.80918502807617 L 31.48721885681152 45.36507415771484 C 31.92754936218262 44.91355514526367 32.54178619384766 44.65459442138672 33.17369842529297 44.65459442138672 C 33.18895721435547 44.65459442138672 33.20418930053711 44.65475463867188 33.21985626220703 44.65506362915039 C 33.86821746826172 44.66810607910156 34.48883819580078 44.95210266113281 34.92235565185547 45.43401336669922 L 37.05081939697266 47.798583984375 C 37.11605072021484 47.87109375 37.20939636230469 47.91381454467773 37.30656814575195 47.91577529907227 L 37.31406784057617 47.91584396362305 C 37.40888977050781 47.91584396362305 37.50123596191406 47.87690353393555 37.56745910644531 47.80900573730469 L 39.96381759643555 45.35173416137695 C 40.40419006347656 44.89993286132812 41.01860046386719 44.64081573486328 41.64952087402344 44.64081573486328 L 41.67994689941406 44.64100646972656 C 42.32223892211914 44.64931488037109 42.94083786010742 44.92445373535156 43.37736892700195 45.39612579345703 L 44.84961700439453 46.988037109375 L 44.84961700439453 14.1789665222168 C 44.84961700439453 12.24190521240234 43.27368927001953 10.66599655151367 41.33661651611328 10.66599655151367 L 16.51299667358398 10.66599655151367 M 16.51299667358398 9.665996551513672 L 41.33661651611328 9.665996551513672 C 43.82907867431641 9.665996551513672 45.84961700439453 11.6865234375 45.84961700439453 14.1789665222168 L 45.84961700439453 49.5421257019043 L 42.64320755004883 46.07510375976562 C 42.39109039306641 45.80268478393555 42.03816986083984 45.64572525024414 41.66701889038086 45.64092636108398 C 41.29593658447266 45.63605117797852 40.93901062011719 45.78391265869141 40.67992782592773 46.04972457885742 L 38.28337860107422 48.50718688964844 C 38.02194213867188 48.77526473999023 37.66123199462891 48.92313385009766 37.28676605224609 48.91557312011719 C 36.91238784790039 48.90803527832031 36.55784606933594 48.74579620361328 36.30739593505859 48.46741485595703 L 34.17911911010742 46.10303497314453 C 33.92868041992188 45.82464599609375 33.57413864135742 45.66239547729492 33.19974899291992 45.65486526489258 C 32.82536315917969 45.64730453491211 32.46457672119141 45.79517364501953 32.20314025878906 46.06325531005859 L 29.82096862792969 48.50718688964844 C 29.55953788757324 48.77526473999023 29.19869804382324 48.92310333251953 28.82436943054199 48.91557312011719 C 28.44998931884766 48.90803527832031 28.09543800354004 48.74579620361328 27.84500885009766 48.46741485595703 L 25.71670913696289 46.10303497314453 C 25.46627807617188 45.82464599609375 25.11172866821289 45.66239547729492 24.73734664916992 45.65486526489258 C 24.36299133300781 45.64733123779297 24.00217819213867 45.79517364501953 23.74073791503906 46.06325531005859 L 21.35857772827148 48.50718688964844 C 21.09716033935547 48.77498626708984 20.7364501953125 48.92265319824219 20.36240005493164 48.91512298583984 C 19.98822784423828 48.90758514404297 19.63386917114258 48.74552536010742 19.38344955444336 48.46741485595703 L 17.26784896850586 46.1165657043457 C 17.01535797119141 45.83575439453125 16.65704727172852 45.67313385009766 16.27943801879883 45.66799545288086 C 15.90190124511719 45.66287612915039 15.53922653198242 45.81565475463867 15.27917861938477 46.08948516845703 L 12 49.5421257019043 L 12 14.1789665222168 C 12 11.6865234375 14.02053833007812 9.665996551513672 16.51299667358398 9.665996551513672 Z" stroke="none" fill="rgba(255,255,255,0.2)"/>
    </g>
  </g>
</svg>
