<svg xmlns="http://www.w3.org/2000/svg" width="400" height="399.968" viewBox="0 0 400 399.968">
  <path id="icon-element1" d="M299.288,275.673c0-31.4.241-62.858-.063-94.281-.482-48.9-31.4-80.076-80.6-80.432-63.5-.471-126.992-.073-190.509-.146C2.994,100.813.273,98.081.105,73.462-.01,56.714.346,40.028.011,23.312-.313,7.611,6.4-.083,22.695,0,78.172.3,133.65-.135,189.127.293c23.667.178,44.456,8.918,61.34,25.687q61.884,61.507,123.4,123.36c17.376,17.418,25.865,38.615,25.875,63.2,0,54.158-.387,108.328.251,162.476.22,18.224-7.1,25.6-25.027,24.9s-36.082-.346-54.128-.115c-14.989.2-21.909-6.427-21.709-21.825C299.56,343.879,299.288,309.776,299.288,275.673Z" fill="#fff"/>
</svg>
