<svg xmlns="http://www.w3.org/2000/svg" width="400" height="399.927" viewBox="0 0 400 399.927">
  <path id="icon-element2" d="M100.726,124.276c0,31.4-.241,62.8.073,94.273.482,48.9,31.4,80.07,80.593,80.437,63.491.46,126.982.073,190.494.136,25.12,0,27.841,2.732,28.009,27.349.115,16.747-.241,33.441.094,50.146.325,15.7-6.384,23.4-22.681,23.309-55.473-.3-110.947.136-166.42-.283-23.665-.177-44.452-8.917-61.335-25.695Q87.653,312.466,26.13,250.609C8.755,233.182.266,212,.256,187.411.256,133.246.643,79.091,0,24.937-.215,6.724,7.1-.665,25.031.047s36.079.335,54.123.1c14.989-.2,21.907,6.437,21.708,21.834C100.422,56.033,100.726,90.175,100.726,124.276Z" fill="#fff"/>
</svg>
