<svg id="logo" xmlns="http://www.w3.org/2000/svg" width="120" height="25.88" viewBox="0 0 120 25.88">
  <path id="Path_3" data-name="Path 3" d="M577.8,1409.71h.967l2.791,4.543h-.818l-.63-1.058h-3.66l-.623,1.058H575Zm1.953,2.881-1.467-2.505-1.473,2.505Z" transform="translate(-550.293 -1388.375)" fill="#fff"/>
  <path id="Path_4" data-name="Path 4" d="M737.09,1409.71h.728v3.939h3.317v.6H737.09Z" transform="translate(-698.923 -1388.375)" fill="#fff"/>
  <path id="Path_5" data-name="Path 5" d="M870.35,1409.71h3.33a1.593,1.593,0,0,1,1.074.332,1.09,1.09,0,0,1,.386.87.882.882,0,0,1-.332.743,1.635,1.635,0,0,1-.929.288,1.74,1.74,0,0,1,1.033.3.95.95,0,0,1,.376.8,1.122,1.122,0,0,1-.182.633,1.172,1.172,0,0,1-.516.425,1.865,1.865,0,0,1-.769.15H870.35Zm3.1,2.012q.96,0,.961-.688,0-.72-.961-.72h-2.384l.007,1.412Zm.143,1.921q.961,0,.961-.759,0-.714-.961-.714h-2.518l.006,1.473Z" transform="translate(-821.117 -1388.375)" fill="#fff"/>
  <path id="Path_6" data-name="Path 6" d="M1014.706,1409.71h.968l2.791,4.543h-.817l-.629-1.058h-3.66l-.624,1.058h-.824Zm1.954,2.881-1.467-2.505-1.474,2.505Z" transform="translate(-950.922 -1388.375)" fill="#fff"/>
  <path id="Path_7" data-name="Path 7" d="M1174,1409.71h.74l3.628,3.66v-3.66h.726v4.543h-.747l-3.621-3.654v3.654H1174Z" transform="translate(-1099.552 -1388.375)" fill="#fff"/>
  <path id="Path_8" data-name="Path 8" d="M1326.09,1409.71h.728v4.543h-.728Z" transform="translate(-1239.013 -1388.375)" fill="#fff"/>
  <path id="Path_9" data-name="Path 9" d="M1420.8,1409.71h.966l2.791,4.543h-.818l-.63-1.058h-3.66l-.623,1.058H1418Zm1.953,2.881-1.467-2.505-1.473,2.505Z" transform="translate(-1323.291 -1388.375)" fill="#fff"/>
  <path id="Path_12" data-name="Path 12" d="M282.637,1214.983H277.46l7.253-6.769-7.253-6.714h5.231l4.8,4.477,4.854-4.477h5.231l-7.473,6.9,7.092,6.58h-5.173l-4.693-4.318Z" transform="translate(-277.46 -1197.455)" fill="#fff"/>
  <path id="Path_13" data-name="Path 13" d="M615.14,1205.456a8.578,8.578,0,0,1-5.9-1.969,7.2,7.2,0,0,1,0-10.409,8.583,8.583,0,0,1,5.9-1.968,9.42,9.42,0,0,1,5.839,1.685,5.445,5.445,0,0,1,2.279,4.436v2.211H611.068a3.112,3.112,0,0,0,1.605,2.224,8.306,8.306,0,0,0,3.816.688q.782,0,1.51-.068a11.41,11.41,0,0,0,1.2-.166,9.209,9.209,0,0,0,1.052-.283q.581-.188.849-.3t.822-.35q.553-.244.742-.324v3.271a21.893,21.893,0,0,1-3.532,1.038A22.382,22.382,0,0,1,615.14,1205.456Zm-4.152-7.875,8.414-.188a2.819,2.819,0,0,0-1.227-2.279,5.038,5.038,0,0,0-3.033-.849,4.48,4.48,0,0,0-2.858.89,3.405,3.405,0,0,0-1.3,2.423Z" transform="translate(-579.654 -1187.928)" fill="#fff"/>
  <path id="Path_14" data-name="Path 14" d="M798.29,1214.983h-5.5L785.67,1201.5h4.369l5.5,10.463,5.528-10.463h4.342Z" transform="translate(-743.469 -1197.455)" fill="#fff"/>
  <path id="Path_15" data-name="Path 15" d="M1013.27,1205.456a8.578,8.578,0,0,1-5.9-1.969,7.2,7.2,0,0,1,0-10.409,8.584,8.584,0,0,1,5.9-1.968,9.422,9.422,0,0,1,5.838,1.685,5.442,5.442,0,0,1,2.279,4.436v2.211H1009.2a3.112,3.112,0,0,0,1.6,2.224,8.312,8.312,0,0,0,3.82.688q.782,0,1.51-.068a11.577,11.577,0,0,0,1.2-.166,9.264,9.264,0,0,0,1.051-.283q.581-.188.849-.3t.823-.35q.552-.244.742-.324v3.271a21.918,21.918,0,0,1-3.532,1.038A22.406,22.406,0,0,1,1013.27,1205.456Zm-4.152-7.875,8.413-.188a2.819,2.819,0,0,0-1.227-2.279,5.037,5.037,0,0,0-3.034-.849,4.483,4.483,0,0,0-2.858.89,3.4,3.4,0,0,0-1.3,2.423Z" transform="translate(-944.723 -1187.928)" fill="#fff"/>
  <path id="Path_16" data-name="Path 16" d="M1218.335,1210.215h-4.045v-13.483h4.422l-.539,5.554h.245q.972-5.987,6.634-5.986a5.052,5.052,0,0,1,4.261,1.861q1.323,1.806,1.321,6.2v5.852h-4.045v-5.394a7.83,7.83,0,0,0-.849-4.22,3.1,3.1,0,0,0-2.765-1.254,3.87,3.87,0,0,0-3.371,1.928,9.18,9.18,0,0,0-1.27,5.11Z" transform="translate(-1136.497 -1192.687)" fill="#fff"/>
  <path id="Path_17" data-name="Path 17" d="M1420.3,1170.318q-2.534,0-3.29-1.052t-.755-4.069v-5.69h-1.887v-2.94h2.128v-3.239l3.829-.539v3.775h3.694v2.94h-3.694v4.881a6.535,6.535,0,0,0,.337,2.683q.337.581,2.009.581c.217,0,.664-.017,1.349-.054v2.184A11.921,11.921,0,0,1,1420.3,1170.318Z" transform="translate(-1319.963 -1152.79)" fill="#fff"/>
  <path id="Path_18" data-name="Path 18" d="M1540.747,1205.492a25.909,25.909,0,0,1-7.224-1.052v-3.4a18.328,18.328,0,0,0,6.58,1.267,14.8,14.8,0,0,0,3.532-.3q1.079-.3,1.08-1.052,0-.647-1.214-.913a18.517,18.517,0,0,0-2.952-.364q-1.744-.095-3.466-.337a6.311,6.311,0,0,1-2.939-1.146,2.963,2.963,0,0,1-1.213-2.522,3.65,3.65,0,0,1,2.13-3.384,12.3,12.3,0,0,1,5.8-1.146,35.7,35.7,0,0,1,6.741.755v3.263a31.239,31.239,0,0,0-6.283-.782q-4.423,0-4.423,1.294,0,.621,1.213.863a22.44,22.44,0,0,0,2.953.351q1.744.107,3.465.364a6.278,6.278,0,0,1,2.94,1.187,3.064,3.064,0,0,1,1.213,2.574,3.583,3.583,0,0,1-2.1,3.385A12.786,12.786,0,0,1,1540.747,1205.492Z" transform="translate(-1428.677 -1187.964)" fill="#fff"/>
  <path id="Path_19" data-name="Path 19" d="M551.382,1334.709c-.018.442-.008.884,0,1.329.005.367-.158.538-.535.533-.236,0-.47-.005-.7-.005-.211,0-.423,0-.634.005-.448,0-.629-.174-.611-.614s.009-.885,0-1.329c0-.367.157-.536.535-.531.257,0,.513,0,.771,0h.083l.487,0C551.218,1334.089,551.4,1334.27,551.382,1334.709Z" transform="translate(-526.356 -1319.041)" fill="#fff"/>
</svg>
