<svg xmlns="http://www.w3.org/2000/svg" width="50" height="44.845" viewBox="0 0 50 44.845">
  <path id="addphoto" d="M114.423-840.423ZM95.866-823.155a3.755,3.755,0,0,1-2.771-1.1,3.755,3.755,0,0,1-1.1-2.771v-26.8a3.755,3.755,0,0,1,1.1-2.771,3.755,3.755,0,0,1,2.771-1.1h7.474l4.768-5.155h12.758v1.8H108.881l-4.768,5.155H95.866a2.007,2.007,0,0,0-1.482.58,2.007,2.007,0,0,0-.58,1.482v26.8a2.007,2.007,0,0,0,.58,1.482,2.007,2.007,0,0,0,1.482.58h37.113a2.007,2.007,0,0,0,1.482-.58,2.007,2.007,0,0,0,.58-1.482v-19.845h1.8v19.845a3.755,3.755,0,0,1-1.1,2.771,3.755,3.755,0,0,1-2.771,1.1Zm39.175-32.732v-5.155h-5.155v-1.8h5.155V-868h1.8v5.155H142v1.8h-5.155v5.155ZM114.423-831.4a8.715,8.715,0,0,0,6.411-2.609,8.715,8.715,0,0,0,2.61-6.411,8.715,8.715,0,0,0-2.61-6.411,8.715,8.715,0,0,0-6.411-2.61,8.715,8.715,0,0,0-6.411,2.61,8.715,8.715,0,0,0-2.61,6.411,8.715,8.715,0,0,0,2.61,6.411A8.715,8.715,0,0,0,114.423-831.4Zm0-1.8a6.994,6.994,0,0,1-5.155-2.062,6.994,6.994,0,0,1-2.062-5.155,6.994,6.994,0,0,1,2.062-5.155,6.994,6.994,0,0,1,5.155-2.062,6.994,6.994,0,0,1,5.155,2.062,6.994,6.994,0,0,1,2.062,5.155,6.994,6.994,0,0,1-2.062,5.155A6.994,6.994,0,0,1,114.423-833.206Z" transform="translate(-92 868)" fill="#FFFFFF" opacity="1"/>
</svg>
