<svg xmlns="http://www.w3.org/2000/svg" width="17.553" height="20" viewBox="0 0 17.553 20">
  <path id="calendar" d="M161.772-829.231a1.716,1.716,0,0,1-1.265-.507A1.716,1.716,0,0,1,160-831v-14.008a1.716,1.716,0,0,1,.507-1.265,1.716,1.716,0,0,1,1.265-.507h1.941v-2.447h1.181v2.447h7.848v-2.447h1.1v2.447h1.941a1.716,1.716,0,0,1,1.265.507,1.716,1.716,0,0,1,.507,1.265V-831a1.716,1.716,0,0,1-.507,1.265,1.716,1.716,0,0,1-1.265.507Zm0-1.1h14.008a.645.645,0,0,0,.464-.211.645.645,0,0,0,.211-.464v-9.62H161.1V-831a.645.645,0,0,0,.211.464A.645.645,0,0,0,161.772-830.328ZM161.1-841.72h15.359v-3.291a.645.645,0,0,0-.211-.464.645.645,0,0,0-.464-.211H161.772a.645.645,0,0,0-.464.211.645.645,0,0,0-.211.464Zm0,0v0Zm7.679,4.979a.81.81,0,0,1-.592-.252.81.81,0,0,1-.252-.592.81.81,0,0,1,.252-.592.81.81,0,0,1,.592-.252.81.81,0,0,1,.592.252.81.81,0,0,1,.252.592.81.81,0,0,1-.252.592A.81.81,0,0,1,168.776-836.742Zm-4.388,0a.81.81,0,0,1-.592-.252.81.81,0,0,1-.252-.592.81.81,0,0,1,.252-.592.81.81,0,0,1,.592-.252.81.81,0,0,1,.592.252.81.81,0,0,1,.252.592.81.81,0,0,1-.252.592A.81.81,0,0,1,164.388-836.742Zm8.776,0a.81.81,0,0,1-.592-.252.81.81,0,0,1-.252-.592.81.81,0,0,1,.252-.592.81.81,0,0,1,.592-.252.81.81,0,0,1,.592.252.81.81,0,0,1,.252.592.81.81,0,0,1-.252.592A.81.81,0,0,1,173.165-836.742Zm-4.388,4.219a.81.81,0,0,1-.592-.252.81.81,0,0,1-.252-.592.81.81,0,0,1,.252-.592.81.81,0,0,1,.592-.252.81.81,0,0,1,.592.252.81.81,0,0,1,.252.592.81.81,0,0,1-.252.592A.81.81,0,0,1,168.776-832.522Zm-4.388,0a.81.81,0,0,1-.592-.252.81.81,0,0,1-.252-.592.81.81,0,0,1,.252-.592.81.81,0,0,1,.592-.252.81.81,0,0,1,.592.252.81.81,0,0,1,.252.592.81.81,0,0,1-.252.592A.81.81,0,0,1,164.388-832.522Zm8.776,0a.81.81,0,0,1-.592-.252.81.81,0,0,1-.252-.592.81.81,0,0,1,.252-.592.81.81,0,0,1,.592-.252.81.81,0,0,1,.592.252.81.81,0,0,1,.252.592.81.81,0,0,1-.252.592A.81.81,0,0,1,173.165-832.522Z" transform="translate(-160 849.231)" fill="#fff"/>
</svg>
