<svg xmlns="http://www.w3.org/2000/svg" width="60" height="60" viewBox="0 0 60 60">
  <path id="cancel" d="M137.756-795.923,150-808.167l12.244,12.244,1.833-1.833L151.833-810l12.244-12.244-1.833-1.833L150-811.833l-12.244-12.244-1.833,1.833L148.167-810l-12.244,12.244ZM150.011-780a28.964,28.964,0,0,1-11.65-2.362,30.566,30.566,0,0,1-9.54-6.452,30.533,30.533,0,0,1-6.458-9.531A28.9,28.9,0,0,1,120-809.989a29.239,29.239,0,0,1,2.362-11.7,29.966,29.966,0,0,1,6.452-9.53,30.9,30.9,0,0,1,9.531-6.416A28.9,28.9,0,0,1,149.989-840a29.24,29.24,0,0,1,11.7,2.362,30.316,30.316,0,0,1,9.53,6.41,30.283,30.283,0,0,1,6.416,9.521,29.178,29.178,0,0,1,2.364,11.7,28.963,28.963,0,0,1-2.362,11.65,30.929,30.929,0,0,1-6.41,9.54,29.935,29.935,0,0,1-9.521,6.458A29.179,29.179,0,0,1,150.011-780ZM150-782.564a26.448,26.448,0,0,0,19.442-8A26.473,26.473,0,0,0,177.436-810a26.465,26.465,0,0,0-7.994-19.442A26.465,26.465,0,0,0,150-837.436a26.474,26.474,0,0,0-19.433,7.994,26.448,26.448,0,0,0-8,19.442,26.457,26.457,0,0,0,8,19.433A26.457,26.457,0,0,0,150-782.564ZM150-810Z" transform="translate(-120 840)" fill="#ff004e"/>
</svg>
