<svg xmlns="http://www.w3.org/2000/svg" width="24" height="24" viewBox="0 0 24 24">
  <path id="check" d="M130.082-822.79l8.528-8.528-.944-.944-7.585,7.585-3.8-3.8-.944.944ZM132-816a11.7,11.7,0,0,1-4.68-.945,12.127,12.127,0,0,1-3.812-2.564,12.113,12.113,0,0,1-2.566-3.809A11.672,11.672,0,0,1,120-828a11.7,11.7,0,0,1,.945-4.68,12.126,12.126,0,0,1,2.564-3.812,12.114,12.114,0,0,1,3.809-2.566A11.67,11.67,0,0,1,132-840a11.7,11.7,0,0,1,4.68.945,12.126,12.126,0,0,1,3.812,2.564,12.114,12.114,0,0,1,2.566,3.809A11.672,11.672,0,0,1,144-828a11.7,11.7,0,0,1-.945,4.68,12.128,12.128,0,0,1-2.564,3.812,12.116,12.116,0,0,1-3.809,2.566A11.671,11.671,0,0,1,132-816Zm0-1.333a10.3,10.3,0,0,0,7.567-3.1,10.3,10.3,0,0,0,3.1-7.567,10.294,10.294,0,0,0-3.1-7.567,10.3,10.3,0,0,0-7.567-3.1,10.3,10.3,0,0,0-7.567,3.1,10.294,10.294,0,0,0-3.1,7.567,10.3,10.3,0,0,0,3.1,7.567A10.3,10.3,0,0,0,132-817.333ZM132-828Z" transform="translate(-120 840)" fill="#01de9b"/>
</svg>
