<svg xmlns="http://www.w3.org/2000/svg" width="18.172" height="13.001" viewBox="0 0 18.172 13.001">
  <g id="view" transform="translate(-867.482 -466.495)" opacity="0.6">
    <path id="Path_345" data-name="Path 345" d="M19.026,10.569c-.548-.951-3.565-5.724-8.689-5.57-4.739.12-7.481,4.284-8.226,5.57a.857.857,0,0,0,0,.857c.54.934,3.428,5.57,8.475,5.57H10.8c4.739-.12,7.489-4.284,8.226-5.57A.857.857,0,0,0,19.026,10.569Zm-8.269,4.713C7.064,15.368,4.656,12.206,3.9,11,4.759,9.618,7,6.8,10.423,6.713,14.1,6.619,16.515,9.789,17.278,11c-.883,1.38-3.093,4.2-6.521,4.284Z" transform="translate(866 462)" fill="#fff" stroke="#000" stroke-width="1"/>
    <path id="Path_346" data-name="Path 346" d="M11.5,8.5a3,3,0,1,0,3,3,3,3,0,0,0-3-3Z" transform="translate(865.069 461.498)" fill="#fff" stroke="#000" stroke-width="1"/>
  </g>
</svg>
