<svg xmlns="http://www.w3.org/2000/svg" width="92" height="33.002" viewBox="0 0 92 33.002">
  <g id="ticket" transform="translate(-513.999 -391.999)">
    <path id="Subtraction_3" data-name="Subtraction 3" d="M-7788,10231h-92v-3h3v-3h-3v-3h3v-3h-3v-3h3v-3h-3v-3h3v-3h-3v-3h3v-3h-3v-3h92v10a7.008,7.008,0,0,0-7,7,7.008,7.008,0,0,0,7,7v9Z" transform="translate(8394 -9806)" fill="#f5c32a"/>
    <path id="Path_354" data-name="Path 354" d="M5.753-7.766v1.012H3.586V0H2.321V-6.754H.165V-7.766Zm2.189,0V0H6.688V-7.766Zm4.983-.077a3.788,3.788,0,0,1,2.376.726,3.547,3.547,0,0,1,1.276,1.969H15.246a2.365,2.365,0,0,0-.875-1.117A2.528,2.528,0,0,0,12.9-6.677a2.283,2.283,0,0,0-1.237.341,2.344,2.344,0,0,0-.858.973,3.293,3.293,0,0,0-.313,1.48,3.267,3.267,0,0,0,.313,1.468,2.344,2.344,0,0,0,.858.974A2.283,2.283,0,0,0,12.9-1.1a2.528,2.528,0,0,0,1.469-.413,2.372,2.372,0,0,0,.875-1.105h1.331A3.521,3.521,0,0,1,15.3-.655a3.808,3.808,0,0,1-2.376.721,3.754,3.754,0,0,1-1.947-.5,3.39,3.39,0,0,1-1.309-1.4,4.415,4.415,0,0,1-.462-2.051,4.415,4.415,0,0,1,.462-2.051,3.427,3.427,0,0,1,1.309-1.4A3.723,3.723,0,0,1,12.925-7.843Zm7.337,3.916L23.683,0H22.154L19.085-3.6V0H17.831V-7.766h1.254v3.553l3.08-3.553h1.518Zm5.61-2.827V-4.4h2.86v.968h-2.86v2.409h3.19V0H24.618V-7.766h4.444v1.012Zm9.405-1.012v1.012H33.11V0H31.845V-6.754H29.689V-7.766Zm6.039,5.7a2.131,2.131,0,0,1-.275,1.061A2,2,0,0,1,40.2-.22a2.909,2.909,0,0,1-1.375.3A3.439,3.439,0,0,1,37.411-.2a2.469,2.469,0,0,1-1-.787,2.233,2.233,0,0,1-.429-1.166h1.342a1.377,1.377,0,0,0,.435.869,1.411,1.411,0,0,0,1.017.363,1.21,1.21,0,0,0,.886-.308,1.062,1.062,0,0,0,.313-.792,1.019,1.019,0,0,0-.231-.687,1.62,1.62,0,0,0-.572-.424q-.341-.154-.935-.352a8.149,8.149,0,0,1-1.183-.462,2.151,2.151,0,0,1-.775-.671,1.923,1.923,0,0,1-.319-1.155,1.97,1.97,0,0,1,.308-1.1,2,2,0,0,1,.88-.732,3.176,3.176,0,0,1,1.32-.258,2.889,2.889,0,0,1,1.887.572,2.156,2.156,0,0,1,.8,1.5H39.8a1.319,1.319,0,0,0-.413-.753,1.292,1.292,0,0,0-.918-.314,1.269,1.269,0,0,0-.847.27.959.959,0,0,0-.319.776.975.975,0,0,0,.22.654,1.529,1.529,0,0,0,.556.407q.336.148.918.347a8.07,8.07,0,0,1,1.2.467,2.182,2.182,0,0,1,.792.688A1.99,1.99,0,0,1,41.316-2.068Z" transform="translate(521 409)"/>
  </g>
</svg>
