<svg xmlns="http://www.w3.org/2000/svg" width="41" height="41" viewBox="0 0 41 41">
  <g id="whatsapp" transform="translate(-273 -867)">
    <g id="Ellipse_15" data-name="Ellipse 15" transform="translate(273 867)" fill="none" stroke="#fff" stroke-width="1" opacity="0.2">
      <circle cx="20.5" cy="20.5" r="20.5" stroke="none"/>
      <circle cx="20.5" cy="20.5" r="20" fill="none"/>
    </g>
    <path id="_6c1760c35ba8c2a204db44a9f4429264" data-name="6c1760c35ba8c2a204db44a9f4429264" d="M11.478,9.781c-.13-.065-.974-.454-1.1-.519a.306.306,0,0,0-.39.065c-.13.13-.39.519-.519.649-.065.13-.195.13-.325.065a5.307,5.307,0,0,1-1.3-.779,7.473,7.473,0,0,1-.909-1.1A.285.285,0,0,1,7,7.834c.065-.065.13-.195.26-.26a.492.492,0,0,0,.13-.26.2.2,0,0,0,0-.26,11.54,11.54,0,0,1-.519-1.169c-.065-.454-.195-.454-.325-.454H6.22a.74.74,0,0,0-.39.195A1.868,1.868,0,0,0,5.246,6.99,3.4,3.4,0,0,0,5.9,8.678a6.921,6.921,0,0,0,2.727,2.4,5.088,5.088,0,0,0,.909.325,1.854,1.854,0,0,0,1.039.065,1.682,1.682,0,0,0,1.1-.779,1.086,1.086,0,0,0,.065-.779l-.26-.13M13.1,3.874a6.471,6.471,0,0,0-10.192,7.79L2,14.975l3.441-.909a6.414,6.414,0,0,0,9.478-5.648A6.323,6.323,0,0,0,13.1,3.874m-1.753,9.089a5.448,5.448,0,0,1-2.856.844,5.693,5.693,0,0,1-2.727-.714l-.195-.13-2.012.519.519-1.948-.13-.195A5.451,5.451,0,0,1,5.7,3.874a5.281,5.281,0,0,1,7.336,1.688,5.357,5.357,0,0,1-1.688,7.4" transform="translate(285 879.025)" fill="#fff"/>
  </g>
</svg>
