<svg id="google" xmlns="http://www.w3.org/2000/svg" width="22.079" height="22.08" viewBox="0 0 22.079 22.08">
  <path id="Path_265" data-name="Path 265" d="M4.893,145.648l-.769,2.869-2.809.059a11.059,11.059,0,0,1-.081-10.309h0l2.5.458,1.1,2.486a6.589,6.589,0,0,0,.062,4.436Z" transform="translate(0 -132.305)" fill="#ffbe00"/>
  <path id="Path_266" data-name="Path 266" d="M272.232,208.176a11.036,11.036,0,0,1-3.936,10.672h0l-3.15-.161L264.7,215.9a6.579,6.579,0,0,0,2.831-3.36h-5.9v-4.367h10.6Z" transform="translate(-250.345 -199.198)" fill="#2167e0"/>
  <path id="Path_267" data-name="Path 267" d="M47.144,315.714h0a11.043,11.043,0,0,1-16.636-3.377l3.578-2.929a6.566,6.566,0,0,0,9.462,3.362Z" transform="translate(-29.193 -296.066)" fill="#00a747"/>
  <path id="Path_268" data-name="Path 268" d="M45.476,2.542,41.9,5.47a6.565,6.565,0,0,0-9.679,3.438l-3.6-2.944h0A11.042,11.042,0,0,1,45.476,2.542Z" transform="translate(-27.39)" fill="#e61000"/>
</svg>
