<svg xmlns="http://www.w3.org/2000/svg" width="60.001" height="60" viewBox="0 0 60.001 60">
  <g id="logo" transform="translate(-391.24 -391.298)">
    <path id="Path_20" data-name="Path 20" d="M805.765,419.618c0-3.229.025-6.456-.006-9.686-.049-5.024-3.225-8.226-8.279-8.263-6.522-.049-13.044-.007-19.564-.015-2.581,0-2.858-.28-2.877-2.809-.012-1.717.025-3.435-.01-5.151-.033-1.618.656-2.4,2.33-2.4,5.7.032,11.4-.013,17.095.03a8.79,8.79,0,0,1,6.3,2.64q6.357,6.317,12.676,12.672a8.862,8.862,0,0,1,2.658,6.493c0,5.564-.04,11.129.026,16.692.022,1.873-.729,2.63-2.57,2.557s-3.707-.035-5.56-.011c-1.539.02-2.25-.66-2.23-2.243C805.8,426.625,805.766,423.122,805.765,419.618Z" transform="translate(-364.874)"/>
    <path id="Path_21" data-name="Path 21" d="M401.589,787.792c0,3.229-.025,6.456.006,9.686.049,5.024,3.225,8.226,8.279,8.263,6.522.049,13.044.007,19.564.015,2.581,0,2.858.28,2.877,2.809.012,1.717-.025,3.435.01,5.151.033,1.618-.656,2.4-2.33,2.4-5.7-.032-11.4.013-17.095-.03a8.789,8.789,0,0,1-6.3-2.64q-6.357-6.317-12.676-12.672a8.862,8.862,0,0,1-2.658-6.493c0-5.564.04-11.129-.026-16.692-.022-1.873.729-2.63,2.57-2.557s3.707.035,5.56.011c1.54-.02,2.25.66,2.23,2.242C401.557,780.785,401.588,784.288,401.589,787.792Z" transform="translate(0 -364.813)"/>
  </g>
</svg>
