<svg xmlns="http://www.w3.org/2000/svg" width="486.579" height="301.631" viewBox="0 0 486.579 301.631">
  <g id="Group_8464" data-name="Group 8464" transform="translate(-925.083 -472.717)">
    <path id="Path_1952" data-name="Path 1952" d="M647.749,9.049a4.861,4.861,0,0,0-1.835-.7h-5.639V6.973a2.394,2.394,0,0,0-2.392-2.39h-2.77V2.35A2.3,2.3,0,0,0,632.867,0a2.193,2.193,0,0,0-1.6.7h-8.38a2.877,2.877,0,0,0-2.874,2.875v.865h-5.291a1.724,1.724,0,0,0,0,3.447h5.291v6.959h-5.291a1.724,1.724,0,0,0,0,3.448h5.291v.865a2.878,2.878,0,0,0,2.874,2.874h8.38a2.194,2.194,0,0,0,1.6.7,2.3,2.3,0,0,0,2.246-2.35V18.154h2.77a2.4,2.4,0,0,0,2.392-2.392v-.791c.839-.189,1.767-.386,2.777-.585h2.862a4.854,4.854,0,0,0,2-.858Z" transform="translate(674.265 760.323) rotate(-1)" fill="#313131"/>
    <path id="Path_1953" data-name="Path 1953" d="M358.269,0a2.076,2.076,0,0,0-1.514.664h-7.933A2.724,2.724,0,0,0,346.1,3.386v.952H343.48A2.266,2.266,0,0,0,341.216,6.6v1.3h-5.338a4.637,4.637,0,0,0-1.5.473l-.1,4.519a2.666,2.666,0,0,0,1.605.721h4.229c.382.076.753.15,1.11.225v1.078a2.267,2.267,0,0,0,2.264,2.264H346.1v.953a2.724,2.724,0,0,0,2.721,2.721h7.934a2.075,2.075,0,0,0,1.513.664A2.179,2.179,0,0,0,360.4,19.3V2.225A2.18,2.18,0,0,0,358.269,0" transform="translate(683.126 752.825)" fill="#313131"/>
    <path id="Path_1960" data-name="Path 1960" d="M-11729.561,2793.833c-2.015-.153-4.033-.331-6-.528l.2-1.99c1.949.2,3.951.372,5.949.524Zm-11.98-1.207c-2.011-.255-4.021-.538-5.974-.841l.308-1.977c1.935.3,3.926.581,5.917.833Zm-11.919-1.854c-2-.372-3.983-.775-5.912-1.2l.431-1.953c1.906.42,3.874.82,5.848,1.187Zm321.718-.279-.139-2c1.961-.135,3.938-.355,5.877-.654l.3,1.977C-11427.693,2790.128-11429.727,2790.354-11431.742,2790.493Zm12.011-1.851-.47-1.944c1.908-.461,3.82-1.009,5.686-1.629l.632,1.9C-11415.8,2787.605-11417.77,2788.169-11419.731,2788.643Zm-345.511-.472c-1.968-.508-3.925-1.052-5.815-1.619l.575-1.916c1.865.559,3.8,1.1,5.74,1.6Zm357.044-3.36-.787-1.839c1.8-.77,3.6-1.627,5.34-2.548l.934,1.769C-11404.5,2783.138-11406.35,2784.019-11408.2,2784.81Zm-368.606-.114c-1.928-.669-3.836-1.38-5.67-2.114l.743-1.857c1.806.723,3.684,1.423,5.582,2.082Zm-11.227-4.505c-1.857-.858-3.683-1.765-5.426-2.695l.942-1.764c1.709.912,3.5,1.8,5.321,2.643Zm390.576-1.05-1.071-1.689c1.648-1.045,3.289-2.177,4.877-3.363l1.2,1.6C-11394.081,2776.908-11395.765,2778.069-11397.455,2779.141Zm-401.255-4.666c-1.745-1.081-3.443-2.218-5.047-3.378l1.172-1.621c1.565,1.132,3.224,2.242,4.929,3.3Zm410.984-2.59-1.31-1.512c1.472-1.275,2.934-2.633,4.346-4.036l1.409,1.419C-11384.724,2769.191-11386.22,2770.58-11387.726,2771.885Zm-420.812-4.542c-1.565-1.335-3.062-2.732-4.452-4.151l1.43-1.4c1.347,1.376,2.8,2.732,4.32,4.029Zm429.419-4-1.5-1.326c1.291-1.458,2.57-2.993,3.8-4.563l1.573,1.235C-11376.5,2760.293-11377.8,2761.859-11379.119,2763.346Zm-437.917-4.711a56.07,56.07,0,0,1-3.557-4.967l1.688-1.072a54.015,54.015,0,0,0,3.43,4.789Zm445.4-4.807-1.639-1.146c1.115-1.6,2.22-3.265,3.281-4.96l1.7,1.062C-11369.379,2750.507-11370.5,2752.2-11371.638,2753.828Zm-451.925-5.5a48.741,48.741,0,0,1-2.3-5.675l1.9-.632a46.9,46.9,0,0,0,2.2,5.442Zm458.351-4.743-1.743-.981c.956-1.7,1.9-3.465,2.806-5.251l1.784.9C-11363.284,2740.066-11364.242,2741.858-11365.212,2743.581Zm-462.2-6.857a46.7,46.7,0,0,1-.763-6.079l2-.118a44.748,44.748,0,0,0,.73,5.818Zm467.673-3.913-1.818-.833c.813-1.774,1.613-3.612,2.38-5.463l1.848.765C-11358.108,2729.154-11358.919,2731.015-11359.741,2732.811Zm-466.406-8.151-2-.139a49.7,49.7,0,0,1,.806-6.066l1.963.384A47.644,47.644,0,0,0-11826.147,2724.659Zm471.028-2.992-1.873-.7c.688-1.831,1.362-3.723,2.007-5.622l1.895.643C-11353.743,2717.905-11354.425,2719.817-11355.119,2721.667Zm-468.789-8.524-1.905-.609a56.954,56.954,0,0,1,2.173-5.7l1.829.811A54.8,54.8,0,0,0-11823.908,2713.143Zm472.671-2.9-1.911-.587c.574-1.871,1.139-3.8,1.676-5.733l1.927.535C-11350.088,2706.413-11350.656,2708.359-11351.237,2710.247Zm-467.916-7.873-1.739-.988c.984-1.734,2.077-3.466,3.248-5.149l1.643,1.142C-11817.139,2699.012-11818.2,2700.693-11819.153,2702.374Zm471.146-3.735-1.94-.487c.478-1.9.943-3.856,1.386-5.812l1.95.441C-11347.057,2694.752-11347.526,2696.723-11348.007,2698.639Zm-464.414-5.967-1.54-1.276c1.27-1.533,2.634-3.055,4.056-4.524l1.438,1.391C-11809.854,2689.695-11811.184,2691.178-11812.421,2692.672Zm467.072-5.778-1.96-.4c.391-1.924.771-3.9,1.129-5.873l1.968.358C-11344.573,2682.968-11344.955,2684.957-11345.349,2686.894Zm-458.846-2.74-1.334-1.49c1.481-1.327,3.046-2.636,4.65-3.892l1.233,1.575C-11801.215,2681.576-11802.745,2682.857-11804.194,2684.155Zm9.336-7.319-1.134-1.648c1.638-1.127,3.35-2.233,5.088-3.286l1.036,1.71C-11791.573,2674.646-11793.252,2675.73-11794.858,2676.835Zm451.666-1.792-1.974-.32.013-.082c.312-1.924.579-3.881.8-5.816l1.987.224c-.222,1.967-.494,3.956-.811,5.911Zm-441.507-4.375-.943-1.764c1.753-.937,3.571-1.85,5.405-2.714l.852,1.809C-11781.188,2668.85-11782.977,2669.747-11784.7,2670.668Zm10.783-5.157-.852-1.81c1.85-.871,3.627-1.777,5.282-2.692l.968,1.75C-11770.211,2663.7-11772.026,2664.622-11773.916,2665.512Zm432.08-2.487-2-.127c.125-1.97.2-3.97.234-5.945l2,.03C-11341.628,2658.99-11341.709,2661.023-11341.836,2663.025Zm-421.479-3.42-1.11-1.664a55.413,55.413,0,0,0,4.728-3.518l1.282,1.536A57.735,57.735,0,0,1-11763.315,2659.6Zm9.338-7.875-1.479-1.346a34.664,34.664,0,0,0,3.556-4.612l1.684,1.079A36.634,36.634,0,0,1-11753.978,2651.73Zm410.327-.729c-.065-1.972-.18-3.971-.341-5.942l1.994-.162c.162,2,.279,4.034.345,6.038Zm-403.738-9.644-1.858-.74a30.682,30.682,0,0,0,1.617-5.571l1.964.375A32.655,32.655,0,0,1-11747.389,2641.357Zm402.773-2.216c-.253-1.957-.558-3.936-.9-5.884l1.969-.351c.353,1.978.661,3.989.919,5.977Zm-400.412-9.843-2-.05a46.542,46.542,0,0,0-.246-5.864l1.99-.2A48.344,48.344,0,0,1-11745.027,2629.3Zm398.326-1.875c-.437-1.925-.927-3.867-1.454-5.773l1.928-.533c.536,1.936,1.032,3.908,1.477,5.863Zm-401.456-9.879c-.357-1.821-.793-3.714-1.334-5.786l1.936-.505c.551,2.112,1,4.044,1.36,5.906Zm398.281-1.593c-.615-1.877-1.282-3.765-1.983-5.613l1.87-.71c.712,1.877,1.39,3.794,2.014,5.7Zm-401.241-9.928c-.5-1.653-1.069-3.466-1.794-5.706l1.9-.615c.729,2.253,1.3,4.077,1.806,5.742Zm397.017-1.2c-.786-1.814-1.625-3.633-2.493-5.406l1.8-.88c.882,1.8,1.734,3.648,2.532,5.49Zm-400.67-10.207c-.552-1.691-1.2-3.693-1.836-5.726l1.909-.6c.631,2.022,1.278,4.017,1.828,5.7Zm395.435-.482c-.953-1.736-1.958-3.469-2.987-5.149l1.705-1.044c1.046,1.708,2.067,3.468,3.035,5.231Zm-187.78-1.455-.014-2c1.951-.013,3.948-.087,5.937-.218l.132,2C-11543.088,2592.59-11545.125,2592.665-11547.116,2592.679Zm-6.061-.147c-2.033-.114-4.065-.3-6.042-.542l.247-1.985c1.932.24,3.919.418,5.907.53Zm18.143-.645-.243-1.985c1.942-.238,3.922-.534,5.883-.88l.348,1.969C-11531.042,2591.343-11533.057,2591.645-11535.034,2591.887Zm-30.179-.858c-2-.4-3.989-.869-5.911-1.407l.539-1.926c1.872.523,3.81.985,5.761,1.371Zm42.095-1.241-.447-1.949c1.912-.438,3.853-.933,5.767-1.469l.54,1.926C-11519.2,2588.84-11521.175,2589.343-11523.118,2589.788Zm-53.789-2.041c-1.913-.709-3.8-1.5-5.609-2.363l.857-1.807c1.756.833,3.589,1.605,5.447,2.294Zm65.431-1.221-.629-1.9c1.866-.619,3.754-1.292,5.609-2l.714,1.868C-11507.665,2585.214-11509.581,2585.9-11511.477,2586.526Zm145.926-2.541c-1.116-1.64-2.282-3.267-3.467-4.836l1.6-1.2c1.2,1.6,2.39,3.249,3.524,4.916Zm-392.78-.871c-.586-2.077-1.084-3.99-1.522-5.848l1.946-.46c.432,1.829.923,3.715,1.5,5.764Zm170.438-.588c-1.75-1.038-3.462-2.167-5.087-3.355l1.18-1.615c1.574,1.151,3.232,2.244,4.928,3.249Zm87.707-.313-.8-1.835c1.808-.784,3.629-1.62,5.412-2.487l.874,1.8C-11496.506,2580.568-11498.353,2581.417-11500.187,2582.212Zm10.868-5.276-.949-1.76c1.737-.937,3.481-1.924,5.185-2.936l1.021,1.719C-11485.788,2574.985-11487.557,2575.987-11489.318,2576.936Zm-108.4-1.6c-1.509-1.349-2.969-2.79-4.339-4.283l1.474-1.352c1.326,1.445,2.738,2.839,4.2,4.144Zm225-.845c-1.276-1.523-2.6-3.023-3.937-4.457l1.464-1.363c1.359,1.459,2.707,2.986,4.006,4.536Zm-388.356-3.16c-.359-2.064-.634-4.09-.816-6.021l1.991-.188c.178,1.879.445,3.853.795,5.867Zm282.145-.565-1.092-1.676c1.656-1.079,3.313-2.207,4.925-3.354l1.16,1.63C-11475.574,2568.529-11477.254,2569.673-11478.933,2570.767Zm-127.022-4.4c-1.049-1.394-2.06-2.857-3-4.35q-.209-.332-.423-.664l1.684-1.08q.217.338.431.676c.914,1.447,1.893,2.865,2.909,4.216Zm225.13-.57c-1.436-1.38-2.916-2.723-4.4-3.992l1.3-1.52c1.513,1.294,3.022,2.663,4.485,4.07Zm-88.266-2.035-1.226-1.581c1.563-1.212,3.122-2.473,4.634-3.747l1.289,1.529C-11465.926,2561.257-11467.506,2562.535-11469.091,2563.763Zm-291.095-4.536-2,0a54.59,54.59,0,0,1,.345-6.1l1.987.228A52.44,52.44,0,0,0-11760.186,2559.228Zm370.333-1.14c-1.594-1.2-3.228-2.348-4.854-3.41l1.094-1.675c1.664,1.087,3.334,2.26,4.964,3.487Zm-222.866-1.659c-1.136-1.592-2.338-3.194-3.571-4.763l1.572-1.236c1.252,1.593,2.473,3.22,3.627,4.837Zm152.862-.452-1.351-1.475.076-.07a54.3,54.3,0,0,1,4.64-3.812l1.181,1.615a52.211,52.211,0,0,0-4.469,3.672Zm60.075-4.361c-1.746-.968-3.525-1.865-5.286-2.665l.828-1.821c1.809.822,3.635,1.743,5.428,2.737Zm-50.585-2.553-.972-1.748a46.811,46.811,0,0,1,5.536-2.623l.734,1.86A44.859,44.859,0,0,0-11450.366,2549.062Zm-308.462-1.49-1.943-.473a47.671,47.671,0,0,1,1.828-5.845l1.866.719A45.514,45.514,0,0,0-11758.828,2547.572Zm138.753-.506c-1.283-1.492-2.622-2.983-3.98-4.433l1.46-1.367c1.377,1.47,2.735,2.983,4.037,4.5Zm209.526-.327c-1.88-.663-3.782-1.233-5.651-1.694l.479-1.942c1.933.477,3.9,1.066,5.838,1.75Zm-28.936-1.969-.479-1.942a46.39,46.39,0,0,1,6.034-1.067l.218,1.988A44.409,44.409,0,0,0-11439.484,2544.769Zm17.5-.833a50.245,50.245,0,0,0-5.862-.452l.035-2a52.311,52.311,0,0,1,6.1.47Zm-206.233-5.565c-1.41-1.385-2.869-2.76-4.336-4.086l1.341-1.483c1.487,1.344,2.967,2.739,4.4,4.143Zm-126.4-1.73-1.762-.947a53.171,53.171,0,0,1,3.205-5.2l1.641,1.143A51.411,51.411,0,0,0-11754.623,2536.641Zm117.566-6.26c-1.526-1.269-3.095-2.518-4.66-3.711l1.212-1.591c1.589,1.211,3.179,2.477,4.727,3.764Zm-110.863-3.409-1.518-1.3c1.336-1.556,2.725-3.057,4.127-4.462l1.416,1.413C-11745.263,2523.99-11746.616,2525.454-11747.92,2526.972Zm101.389-3.809c-1.635-1.137-3.3-2.244-4.964-3.289l1.066-1.692c1.685,1.062,3.38,2.185,5.039,3.339Zm-93.02-4.554-1.295-1.525c1.562-1.324,3.181-2.579,4.813-3.73l1.153,1.635C-11736.465,2516.105-11738.036,2517.323-11739.551,2518.609Zm82.947-1.789c-1.737-.982-3.5-1.924-5.25-2.8l.9-1.788c1.776.889,3.573,1.847,5.339,2.846Zm-73.3-5-.991-1.737c1.769-1.009,3.6-1.936,5.438-2.755l.813,1.827C-11726.42,2509.947-11728.189,2510.843-11729.9,2511.819Zm62.662-.317c-1.832-.8-3.687-1.541-5.515-2.212l.689-1.877c1.863.684,3.755,1.443,5.623,2.255Zm-11.148-4.083c-1.914-.569-3.845-1.072-5.738-1.5l.437-1.952c1.938.434,3.914.948,5.872,1.53Zm-40.752-.385-.623-1.9a60.383,60.383,0,0,1,5.884-1.6l.428,1.954A58.47,58.47,0,0,0-11719.139,2507.035Zm29.189-2.191c-1.971-.289-3.951-.5-5.885-.622l.128-2c1.988.128,4.022.343,6.046.639Zm-17.684-.334-.233-1.986c1.99-.234,4.034-.377,6.076-.425l.047,2C-11703.723,2504.145-11705.7,2504.283-11707.633,2504.51Z" transform="translate(12753.26 -2029.382)" fill="#313131"/>
  </g>
</svg>
